<svg width="128" height="128" viewBox="0 0 128 128" fill="none" xmlns="http://www.w3.org/2000/svg">
<path d="M100 128H28C12.536 128 0 115.464 0 100V28C0 12.536 12.536 0 28 0H100C115.464 0 128 12.536 128 28V100C128 115.464 115.464 128 100 128Z" fill="#41479B"/>
<path d="M128 99.9975V93.8507L108.145 80.8425H128V74.1055H74.1052V128H80.842V87.1152L123.575 115.113C125.088 112.756 126.257 110.158 127.012 107.389" fill="#F5F5F5"/>
<path d="M1.88275 110.111C2.56475 111.871 3.41825 113.545 4.42475 115.113L47.1577 87.1152V128H53.8945V74.1055H0V80.8425H19.8547L0 93.8507V100C0 101.077 0.063 102.138 0.18125 103.183" fill="#F5F5F5"/>
<path d="M0 28.9517V34.1495L19.8547 47.158H0V53.8947H53.8947V0H47.158V40.885L4.42475 12.8875C2.764 15.4732 1.51825 18.3505 0.7785 21.425" fill="#F5F5F5"/>
<path d="M126.08 17.7922C125.405 16.0675 124.563 14.4257 123.575 12.8872L80.842 40.885V0H74.1052V53.8947H128V47.158H108.145L128 34.1495V28C128 26.885 127.933 25.7855 127.806 24.7045" fill="#F5F5F5"/>
<path d="M74.1052 0H53.8947V53.8947H0V74.1052H53.8947V128H74.1052V74.1052H128V53.8947H74.1052V0Z" fill="#FF4B55"/>
<path d="M34.5987 80.842L0.181244 103.183C0.454744 105.599 1.03474 107.921 1.88299 110.111L46.9727 80.8418L34.5987 80.842Z" fill="#FF4B55"/>
<path d="M86.1162 80.842L127.013 107.389C127.655 105.034 128 102.558 128 99.9998V99.997L98.4902 80.8418L86.1162 80.842Z" fill="#FF4B55"/>
<path d="M40.421 47.1588L0.7785 21.4258C0.27075 23.5348 0 25.736 0 28.0008V28.9525L28.047 47.1588H40.421Z" fill="#FF4B55"/>
<path d="M93.2158 47.1585L127.806 24.705C127.523 22.294 126.936 19.9765 126.08 17.793L80.842 47.1585H93.2158Z" fill="#FF4B55"/>
</svg>
