<svg width="128" height="128" viewBox="0 0 128 128" fill="none" xmlns="http://www.w3.org/2000/svg">
<path d="M100 0H28C12.536 0 0 12.536 0 28V100C0 115.464 12.536 128 28 128H100C115.464 128 128 115.464 128 100V28C128 12.536 115.464 0 100 0Z" fill="#C8414B"/>
<path d="M128 26.6582H0V101.343H128V26.6582Z" fill="#FFD250"/>
<path d="M55.7727 64.1023L57.8365 55.686C58.0265 54.911 57.3757 54.1758 56.4997 54.1758H55.046C54.17 54.1758 53.519 54.911 53.7092 55.686L55.7727 64.1023Z" fill="#C8414B"/>
<path d="M58.2057 59.6895H53.3374V78.4395H58.2057V59.6895Z" fill="#F5F5F5"/>
<path d="M59.4251 57.4844H52.1226V59.6901H59.4251V57.4844Z" fill="#FAB446"/>
<path d="M59.4228 64.1016H47.2525V66.3073H59.4228V64.1016Z" fill="#C8414B"/>
<path d="M59.424 72.9254L52.1218 70.7194V68.5137L59.424 70.7194V72.9254Z" fill="#C8414B"/>
<path d="M19.2618 64.1023L21.3255 55.686C21.5155 54.911 20.8648 54.1758 19.9888 54.1758H18.535C17.659 54.1758 17.008 54.911 17.1983 55.686L19.2618 64.1023Z" fill="#C8414B"/>
<path d="M27.7809 57.4844C26.4367 57.4844 25.3469 58.4719 25.3469 59.6904V74.0286C25.3469 76.7089 28.1072 81.7491 37.5174 81.7491C46.9277 81.7491 49.6879 76.7086 49.6879 74.0286V59.6904C49.6879 58.4721 48.5982 57.4844 47.2539 57.4844H27.7809Z" fill="#F5F5F5"/>
<path d="M37.5172 68.5139H25.3467V59.8016C25.3467 58.5219 26.3842 57.4844 27.6639 57.4844H37.5172V68.5139Z" fill="#C8414B"/>
<path d="M37.5172 68.5137H49.6877V73.7502C49.6877 76.9494 47.0941 79.5432 43.8946 79.5432H43.3102C40.1109 79.5432 37.5172 76.9497 37.5172 73.7502V68.5137Z" fill="#C8414B"/>
<path d="M25.3467 68.5156H37.5172V73.7521C37.5172 76.9514 34.9237 79.5451 31.7242 79.5451H31.1397C27.9404 79.5451 25.3467 76.9516 25.3467 73.7521V68.5156Z" fill="#FAB446"/>
<path d="M35.0832 78.4171V68.5156H32.6492V79.4339C33.5542 79.2671 34.3725 78.9039 35.0832 78.4171Z" fill="#C8414B"/>
<path d="M30.215 79.4339V68.5156H27.781V78.4171C28.4918 78.9039 29.3098 79.2671 30.215 79.4339Z" fill="#C8414B"/>
<path d="M35.0825 64.1016H27.78V66.3073H35.0825V64.1016Z" fill="#FFB441"/>
<path d="M35.0825 59.6895H27.78V61.8955H35.0825V59.6895Z" fill="#FAB446"/>
<path d="M33.8658 61.002H28.9976V64.9982H33.8658V61.002Z" fill="#FAB446"/>
<path d="M21.6956 59.6895H16.8274V78.4395H21.6956V59.6895Z" fill="#F5F5F5"/>
<path d="M22.9126 77.3359H15.6101V79.5417H22.9126V77.3359Z" fill="#FAB446"/>
<path d="M22.9126 57.4844H15.6101V59.6901H22.9126V57.4844Z" fill="#FAB446"/>
<path d="M24.1288 79.5449H14.3926V81.7507H24.1288V79.5449Z" fill="#5064AA"/>
<path d="M60.6399 77.3379H53.3374V79.5436H60.6399V77.3379Z" fill="#FAB446"/>
<path d="M60.6413 79.5449H50.905V81.7507H60.6413V79.5449Z" fill="#5064AA"/>
<path d="M44.8201 55.2793H30.2151V57.485H44.8201V55.2793Z" fill="#FAB446"/>
<path d="M38.7341 48.6621H36.3V55.2799H38.7341V48.6621Z" fill="#FFB441"/>
<path d="M35.0832 51.971C33.0699 51.971 31.4322 50.4868 31.4322 48.6623C31.4322 46.8378 33.0699 45.3535 35.0832 45.3535C37.0964 45.3535 38.7342 46.8378 38.7342 48.6623C38.7342 50.4868 37.0964 51.971 35.0832 51.971ZM35.0832 47.5593C34.4117 47.5593 33.8662 48.0538 33.8662 48.6623C33.8662 49.2708 34.4117 49.7653 35.0832 49.7653C35.7547 49.7653 36.3002 49.2708 36.3002 48.6623C36.3002 48.0538 35.7547 47.5593 35.0832 47.5593Z" fill="#F5F5F5"/>
<path d="M39.9512 51.971C37.938 51.971 36.3002 50.4868 36.3002 48.6623C36.3002 46.8378 37.938 45.3535 39.9512 45.3535C41.9645 45.3535 43.6022 46.8378 43.6022 48.6623C43.6022 50.4868 41.9647 51.971 39.9512 51.971ZM39.9512 47.5593C39.2797 47.5593 38.7342 48.0538 38.7342 48.6623C38.7342 49.2708 39.2797 49.7653 39.9512 49.7653C40.6227 49.7653 41.1682 49.2708 41.1682 48.6623C41.1682 48.0538 40.6227 47.5593 39.9512 47.5593Z" fill="#F5F5F5"/>
<path d="M44.8195 54.1761C42.8062 54.1761 41.1685 52.6918 41.1685 50.8673C41.1685 49.0428 42.8062 47.5586 44.8195 47.5586C46.8327 47.5586 48.4707 49.0428 48.4707 50.8673C48.4707 52.6918 46.8327 54.1761 44.8195 54.1761ZM44.8195 49.7643C44.148 49.7643 43.6025 50.2588 43.6025 50.8673C43.6025 51.4758 44.148 51.9703 44.8195 51.9703C45.491 51.9703 46.0365 51.4758 46.0365 50.8673C46.0365 50.2586 45.491 49.7643 44.8195 49.7643Z" fill="#F5F5F5"/>
<path d="M30.215 54.1761C28.2017 54.1761 26.564 52.6918 26.564 50.8673C26.564 49.0428 28.2017 47.5586 30.215 47.5586C32.2282 47.5586 33.866 49.0428 33.866 50.8673C33.866 52.6918 32.2282 54.1761 30.215 54.1761ZM30.215 49.7643C29.5435 49.7643 28.998 50.2588 28.998 50.8673C28.998 51.4758 29.5435 51.9703 30.215 51.9703C30.8865 51.9703 31.432 51.4758 31.432 50.8673C31.432 50.2586 30.8865 49.7643 30.215 49.7643Z" fill="#F5F5F5"/>
<path d="M44.8194 72.9267V74.0297C44.8194 74.638 44.2734 75.1327 43.6024 75.1327C42.9314 75.1327 42.3854 74.638 42.3854 74.0297V72.9267H44.8194ZM47.2534 70.7207H39.9512V74.0295C39.9512 75.854 41.5892 77.3382 43.6022 77.3382C45.6154 77.3382 47.2534 75.8537 47.2534 74.0295V70.7207Z" fill="#FAB446"/>
<path d="M43.7192 66.3092H43.4855C42.2057 66.3092 41.1682 65.2717 41.1682 63.9919V62.0087C41.1682 60.7289 42.2057 59.6914 43.4855 59.6914H43.7192C44.999 59.6914 46.0365 60.7289 46.0365 62.0087V63.9919C46.0365 65.2719 44.999 66.3092 43.7192 66.3092Z" fill="#FFA0D2"/>
<path d="M37.5175 71.8245C39.5338 71.8245 41.1685 70.3431 41.1685 68.5158C41.1685 66.6884 39.5338 65.207 37.5175 65.207C35.5011 65.207 33.8665 66.6884 33.8665 68.5158C33.8665 70.3431 35.5011 71.8245 37.5175 71.8245Z" fill="#5064AA"/>
<path d="M38.7341 44.25H36.3V50.8677H38.7341V44.25Z" fill="#FAB446"/>
<path d="M30.215 55.2799L27.781 53.0739L29.2068 51.7816C31.4108 49.7841 34.4003 48.6621 37.5173 48.6621C40.6343 48.6621 43.6238 49.7844 45.8278 51.7816L47.2535 53.0739L44.8195 55.2799H30.215Z" fill="#C8414B"/>
<path d="M37.5176 54.1747C38.1897 54.1747 38.7346 53.6809 38.7346 53.0717C38.7346 52.4626 38.1897 51.9688 37.5176 51.9688C36.8455 51.9688 36.3006 52.4626 36.3006 53.0717C36.3006 53.6809 36.8455 54.1747 37.5176 54.1747Z" fill="#FFD250"/>
<path d="M32.6501 54.1747C33.3222 54.1747 33.8671 53.6809 33.8671 53.0717C33.8671 52.4626 33.3222 51.9688 32.6501 51.9688C31.978 51.9688 31.4331 52.4626 31.4331 53.0717C31.4331 53.6809 31.978 54.1747 32.6501 54.1747Z" fill="#FFD250"/>
<path d="M42.3851 54.1747C43.0572 54.1747 43.6021 53.6809 43.6021 53.0717C43.6021 52.4626 43.0572 51.9688 42.3851 51.9688C41.713 51.9688 41.1681 52.4626 41.1681 53.0717C41.1681 53.6809 41.713 54.1747 42.3851 54.1747Z" fill="#FFD250"/>
<path d="M27.7804 64.1016H15.6101V66.3073H27.7804V64.1016Z" fill="#C8414B"/>
<path d="M15.6106 72.9254L22.9128 70.7194V68.5137L15.6106 70.7194V72.9254Z" fill="#C8414B"/>
</svg>
