<svg width="128" height="128" viewBox="0 0 128 128" fill="none" xmlns="http://www.w3.org/2000/svg">
<path d="M100 0H46.3447V128H100C115.464 128 128 115.464 128 100V28C128 12.536 115.464 0 100 0Z" fill="#FF4B55"/>
<path d="M28 0C12.536 0 0 12.536 0 28V100C0 115.464 12.536 128 28 128H46.3447V0H28Z" fill="#73AF00"/>
<path d="M46.3626 92.0943C61.879 92.0943 74.4576 79.5157 74.4576 63.9993C74.4576 48.4829 61.879 35.9043 46.3626 35.9043C30.8461 35.9043 18.2676 48.4829 18.2676 63.9993C18.2676 79.5157 30.8461 92.0943 46.3626 92.0943Z" fill="#FFE15A"/>
<path d="M55.7352 54.6277V67.1252C55.7352 72.2934 51.5305 76.4982 46.3622 76.4982C41.194 76.4982 36.9892 72.2934 36.9892 67.1252V54.6277H55.7352ZM58.8595 48.3789H33.8645C32.139 48.3789 30.7402 49.7777 30.7402 51.5032V67.1249C30.7402 75.7527 37.7345 82.7467 46.362 82.7467C54.9895 82.7467 61.9837 75.7524 61.9837 67.1249V51.5032C61.984 49.7777 60.585 48.3789 58.8595 48.3789Z" fill="#FF4B55"/>
<path d="M52.9827 57.3789V66.2064C52.9827 69.8572 50.0127 72.8272 46.362 72.8272C42.7112 72.8272 39.7412 69.8572 39.7412 66.2064V57.3789H52.9827Z" fill="#F5F5F5"/>
<path d="M33.8401 53.064C34.7029 53.064 35.4023 52.3645 35.4023 51.5017C35.4023 50.6389 34.7029 49.9395 33.8401 49.9395C32.9773 49.9395 32.2778 50.6389 32.2778 51.5017C32.2778 52.3645 32.9773 53.064 33.8401 53.064Z" fill="#FFE15A"/>
<path d="M58.8351 53.064C59.6979 53.064 60.3973 52.3645 60.3973 51.5017C60.3973 50.6389 59.6979 49.9395 58.8351 49.9395C57.9723 49.9395 57.2728 50.6389 57.2728 51.5017C57.2728 52.3645 57.9723 53.064 58.8351 53.064Z" fill="#FFE15A"/>
<path d="M33.8401 65.562C34.7029 65.562 35.4023 64.8626 35.4023 63.9997C35.4023 63.1369 34.7029 62.4375 33.8401 62.4375C32.9773 62.4375 32.2778 63.1369 32.2778 63.9997C32.2778 64.8626 32.9773 65.562 33.8401 65.562Z" fill="#FFE15A"/>
<path d="M58.8351 65.562C59.6979 65.562 60.3973 64.8626 60.3973 63.9997C60.3973 63.1369 59.6979 62.4375 58.8351 62.4375C57.9723 62.4375 57.2728 63.1369 57.2728 63.9997C57.2728 64.8626 57.9723 65.562 58.8351 65.562Z" fill="#FFE15A"/>
<path d="M46.3376 53.064C47.2004 53.064 47.8998 52.3645 47.8998 51.5017C47.8998 50.6389 47.2004 49.9395 46.3376 49.9395C45.4748 49.9395 44.7753 50.6389 44.7753 51.5017C44.7753 52.3645 45.4748 53.064 46.3376 53.064Z" fill="#FFE15A"/>
<path d="M55.7176 77.0815C56.5804 77.0815 57.2798 76.3821 57.2798 75.5193C57.2798 74.6565 56.5804 73.957 55.7176 73.957C54.8548 73.957 54.1553 74.6565 54.1553 75.5193C54.1553 76.3821 54.8548 77.0815 55.7176 77.0815Z" fill="#FFE15A"/>
<path d="M37.1426 77.0815C38.0054 77.0815 38.7048 76.3821 38.7048 75.5193C38.7048 74.6565 38.0054 73.957 37.1426 73.957C36.2798 73.957 35.5803 74.6565 35.5803 75.5193C35.5803 76.3821 36.2798 77.0815 37.1426 77.0815Z" fill="#FFE15A"/>
<path d="M48.3799 63.209V65.8995C48.3799 67.0122 47.4747 67.9172 46.3622 67.9172C45.2497 67.9172 44.3444 67.012 44.3444 65.8995V63.209H48.3799Z" fill="#41479B"/>
<path d="M48.3799 56.8301V59.5206C48.3799 60.6333 47.4747 61.5383 46.3622 61.5383C45.2497 61.5383 44.3444 60.6331 44.3444 59.5206V56.8301H48.3799Z" fill="#41479B"/>
<path d="M48.3799 69.6523V72.3428C48.3799 73.4556 47.4747 74.3606 46.3622 74.3606C45.2497 74.3606 44.3444 73.4553 44.3444 72.3428V69.6523H48.3799Z" fill="#41479B"/>
<path d="M53.8149 63.209V65.8995C53.8149 67.0122 52.9097 67.9172 51.7972 67.9172C50.6847 67.9172 49.7794 67.012 49.7794 65.8995V63.209H53.8149Z" fill="#41479B"/>
<path d="M42.9447 63.209V65.8995C42.9447 67.0122 42.0394 67.9172 40.9269 67.9172C39.8144 67.9172 38.9092 67.012 38.9092 65.8995V63.209H42.9447Z" fill="#41479B"/>
</svg>
