<svg width="128" height="128" viewBox="0 0 128 128" fill="none" xmlns="http://www.w3.org/2000/svg">
<path d="M100 0H28C12.536 0 0 12.536 0 28V100C0 115.464 12.536 128 28 128H100C115.464 128 128 115.464 128 100V28C128 12.536 115.464 0 100 0Z" fill="#FF4B55"/>
<path d="M28.5051 21.7952L31.6856 31.3317L41.7381 31.4097C43.0396 31.4197 43.5794 33.0807 42.5324 33.854L34.4454 39.8257L37.4776 49.4105C37.8701 50.6515 36.4574 51.678 35.3984 50.921L27.2199 45.0752L19.0414 50.921C17.9826 51.6777 16.5696 50.6512 16.9621 49.4105L19.9944 39.8257L11.9074 33.854C10.8604 33.0807 11.4001 31.42 12.7016 31.4097L22.7541 31.3317L25.9346 21.7952C26.3469 20.5605 28.0934 20.5605 28.5051 21.7952Z" fill="#FFE15A"/>
<path d="M65.0091 24.145L67.2896 27.255L70.9704 26.104C71.4469 25.955 71.8389 26.4982 71.5471 26.9035L69.2941 30.0335L71.5262 33.1785C71.8152 33.5857 71.4194 34.1262 70.9439 33.9742L67.2709 32.7987L64.9696 35.8932C64.6716 36.294 64.0351 36.0847 64.0331 35.5855L64.0161 31.729L60.3619 30.4967C59.8886 30.3372 59.8911 29.6672 60.3651 29.5107L64.0276 28.303L64.0704 24.4467C64.0762 23.9472 64.7139 23.7422 65.0091 24.145Z" fill="#FFE15A"/>
<path d="M51.1239 14.8752L54.9579 15.292L56.5934 11.7995C56.8051 11.3472 57.4706 11.4247 57.5726 11.9137L58.3611 15.6887L62.1881 16.165C62.6836 16.2267 62.8154 16.8835 62.3821 17.1315L59.0354 19.0477L59.7651 22.8345C59.8596 23.3247 59.2756 23.6532 58.9059 23.3177L56.0491 20.727L52.6731 22.5912C52.2361 22.8325 51.7434 22.3787 51.9479 21.9232L53.5289 18.4057L50.7126 15.771C50.3481 15.4302 50.6276 14.8212 51.1239 14.8752Z" fill="#FFE15A"/>
<path d="M57.1846 52.2485L54.9041 55.3585L51.2234 54.2075C50.7469 54.0585 50.3549 54.6017 50.6466 55.007L52.8996 58.137L50.6676 61.282C50.3786 61.6892 50.7741 62.2297 51.2499 62.0777L54.9229 60.9022L57.2241 63.9967C57.5221 64.3975 58.1586 64.1882 58.1606 63.689L58.1776 59.8325L61.8319 58.6002C62.3049 58.4407 62.3026 57.7707 61.8286 57.6145L58.1661 56.4067L58.1234 52.5505C58.1179 52.0507 57.4799 51.8457 57.1846 52.2485Z" fill="#FFE15A"/>
<path d="M71.0701 43.5374L67.2361 43.9541L65.6006 40.4616C65.3889 40.0094 64.7234 40.0869 64.6214 40.5756L63.8329 44.3506L60.0059 44.8269C59.5104 44.8886 59.3786 45.5454 59.8119 45.7934L63.1586 47.7096L62.4289 51.4964C62.3344 51.9866 62.9184 52.3151 63.2881 51.9796L66.1449 49.3889L69.5209 51.2531C69.9579 51.4944 70.4506 51.0406 70.2461 50.5851L68.6651 47.0676L71.4814 44.4329C71.8459 44.0924 71.5664 43.4834 71.0701 43.5374Z" fill="#FFE15A"/>
</svg>
