<svg width="17" height="17" fill="none" xmlns="http://www.w3.org/2000/svg"><path d="M8.504 2.051h3.212c.756 0 1.134.19 1.417.284.378.19.661.285.944.569.284.284.473.568.567.947.095.285.19.664.284 1.422v6.443c0 .758-.19 1.137-.284 1.42-.189.38-.283.664-.567.948-.283.285-.566.474-.944.569-.283.095-.661.19-1.417.284H5.293c-.756 0-1.134-.19-1.417-.284-.378-.19-.661-.284-.945-.569-.283-.284-.472-.568-.566-.947-.095-.284-.19-.663-.284-1.421V5.273c0-.758.19-1.137.284-1.422.189-.379.283-.663.566-.947.284-.284.567-.474.945-.569.283-.094.661-.19 1.417-.284h3.211Zm0-1.421H5.293c-.85 0-1.417.19-1.89.379-.472.19-.944.474-1.416.947-.472.474-.661.853-.945 1.422C.853 3.85.76 4.42.664 5.273v6.443c0 .852.19 1.42.378 1.895.19.473.473.947.945 1.42.472.475.85.664 1.417.948.472.19 1.039.285 1.889.38h6.423c.85 0 1.417-.19 1.89-.38.471-.19.944-.473 1.416-.947s.661-.853.945-1.421c.188-.474.283-1.043.377-1.895V5.273c0-.853-.189-1.422-.377-1.895a4.138 4.138 0 0 0-.945-1.422c-.472-.473-.85-.663-1.417-.947-.472-.19-1.039-.284-1.889-.38H8.504Z" fill="#fff"/><path d="M8.504 4.42a4.038 4.038 0 0 0-4.061 4.074 4.038 4.038 0 0 0 4.061 4.074c2.267 0 4.062-1.8 4.062-4.074A4.038 4.038 0 0 0 8.504 4.42Zm0 6.727A2.644 2.644 0 0 1 5.86 8.494c0-1.421 1.133-2.653 2.644-2.653a2.644 2.644 0 0 1 2.645 2.653c0 1.421-1.228 2.653-2.645 2.653ZM12.66 5.273a.946.946 0 0 0 .945-.948.946.946 0 0 0-.944-.947.946.946 0 0 0-.945.947c0 .523.423.948.945.948Z" fill="#fff"/></svg>
