<svg width="16" height="14" fill="none" xmlns="http://www.w3.org/2000/svg"><path d="M15.658 2.483a6.763 6.763 0 0 1-1.803.472c.627-.393 1.176-1.022 1.41-1.73-.626.393-1.254.63-2.038.787A3.08 3.08 0 0 0 10.954.989a3.15 3.15 0 0 0-3.136 3.146c0 .236 0 .472.078.708A9.232 9.232 0 0 1 1.39 1.54a3.589 3.589 0 0 0-.392 1.573 3.04 3.04 0 0 0 1.411 2.595c-.549 0-1.019-.157-1.411-.393 0 1.494 1.098 2.83 2.509 3.067-.235.078-.549.078-.863.078-.235 0-.392 0-.627-.078a3.13 3.13 0 0 0 2.98 2.202c-1.098.865-2.431 1.337-3.92 1.337-.236 0-.471 0-.785-.08 1.412.866 3.058 1.416 4.861 1.416 5.802 0 8.938-4.797 8.938-8.965V3.9c.627-.236 1.176-.786 1.568-1.416Z" fill="#fff"/></svg>
